<?xml version="1.0" encoding="utf-8"?>
<!-- Generator: Adobe Illustrator 26.0.1, SVG Export Plug-In . SVG Version: 6.00 Build 0)  -->
<svg version="1.1" id="Layer_1" xmlns="http://www.w3.org/2000/svg" xmlns:xlink="http://www.w3.org/1999/xlink" x="0px" y="0px"
	 viewBox="0 0 842 595" style="enable-background:new 0 0 842 595;" xml:space="preserve">
<style type="text/css">
	.st0{fill-rule:evenodd;clip-rule:evenodd;fill:#FFFFFF;}
</style>
<g id="Shed">
	<g id="_x3C_Group_x3E_">
		<path id="_x3C_Path_x3E_" class="st0" d="M416.7,439V58c-2.3,1.2-3.3,1.4-4,2.1c-22.5,22.3-45.1,44.6-67.4,67.1
			c-2,2-3,5.8-3.1,8.7c-0.3,13.7-0.2,27.4-0.2,41.1c0,60.2,0,120.4,0.1,180.5c0,31.1,0.2,62.1,0.4,93.2h74.6
			C416.9,446.8,416.7,442.9,416.7,439z M406.1,298.2h-4.6v119.3h4.6v3.2h-23.4v-3.2h4.5v-61.6h-14.4v61.6h4.5v3.2H354v-3.2h4.5
			V298.2H354V295h23.3v3.2h-4.5v54.5h14.4v-54.5h-4.5V295h23.4L406.1,298.2L406.1,298.2z"/>
	</g>
	<g id="_x3C_Group_x3E__00000173860667853345892310000008585872570595962555_">
		<path id="_x3C_Path_x3E__00000121249308105505452030000015578986316182501258_" class="st0" d="M501.7,136.6
			c-0.1-3.8-2.1-8.3-4.7-10.9c-21.1-21.5-42.5-42.7-63.9-63.9c-1.2-1.2-2.8-2.1-5.6-4.2v383.3c0,3.3-0.4,6.5-0.6,9.8h74.6
			c0.2-3.9,0.4-7.8,0.4-11.8c0.1-87.1,0.1-174.1,0.1-261.2C502,164,502.3,150.3,501.7,136.6z M487,332.1h-14.5v-34.8h-11.8v55h17.2
			v3.3h-17.2v62.1h11.8v-34.8H487V421h-45.3v-3.3h4.5V297.3h-4.5V294H487V332.1z"/>
	</g>
	<g id="_x3C_Group_x3E__00000127014962267776363990000001131908920110809746_">
		<path id="_x3C_Path_x3E__00000142882176710763806920000010116650495307322246_" class="st0" d="M553.9,299.2
			c-1.4-1.4-3.1-2.1-5.1-2.1h-6.3v119.7h6.3c2,0,3.7-0.7,5.1-2.1c1.4-1.4,2.1-3.1,2.1-5.1V304.3C556,302.3,555.3,300.6,553.9,299.2z
			 M553.9,299.2c-1.4-1.4-3.1-2.1-5.1-2.1h-6.3v119.7h6.3c2,0,3.7-0.7,5.1-2.1c1.4-1.4,2.1-3.1,2.1-5.1V304.3
			C556,302.3,555.3,300.6,553.9,299.2z M553.9,299.2c-1.4-1.4-3.1-2.1-5.1-2.1h-6.3v119.7h6.3c2,0,3.7-0.7,5.1-2.1
			c1.4-1.4,2.1-3.1,2.1-5.1V304.3C556,302.3,555.3,300.6,553.9,299.2z M553.9,299.2c-1.4-1.4-3.1-2.1-5.1-2.1h-6.3v119.7h6.3
			c2,0,3.7-0.7,5.1-2.1c1.4-1.4,2.1-3.1,2.1-5.1V304.3C556,302.3,555.3,300.6,553.9,299.2z M553.9,299.2c-1.4-1.4-3.1-2.1-5.1-2.1
			h-6.3v119.7h6.3c2,0,3.7-0.7,5.1-2.1c1.4-1.4,2.1-3.1,2.1-5.1V304.3C556,302.3,555.3,300.6,553.9,299.2z M553.9,299.2
			c-1.4-1.4-3.1-2.1-5.1-2.1h-6.3v119.7h6.3c2,0,3.7-0.7,5.1-2.1c1.4-1.4,2.1-3.1,2.1-5.1V304.3C556,302.3,555.3,300.6,553.9,299.2z
			 M553.9,299.2c-1.4-1.4-3.1-2.1-5.1-2.1h-6.3v119.7h6.3c2,0,3.7-0.7,5.1-2.1c1.4-1.4,2.1-3.1,2.1-5.1V304.3
			C556,302.3,555.3,300.6,553.9,299.2z M553.9,299.2c-1.4-1.4-3.1-2.1-5.1-2.1h-6.3v119.7h6.3c2,0,3.7-0.7,5.1-2.1
			c1.4-1.4,2.1-3.1,2.1-5.1V304.3C556,302.3,555.3,300.6,553.9,299.2z M553.9,299.2c-1.4-1.4-3.1-2.1-5.1-2.1h-6.3v119.7h6.3
			c2,0,3.7-0.7,5.1-2.1c1.4-1.4,2.1-3.1,2.1-5.1V304.3C556,302.3,555.3,300.6,553.9,299.2z M553.9,299.2c-1.4-1.4-3.1-2.1-5.1-2.1
			h-6.3v119.7h6.3c2,0,3.7-0.7,5.1-2.1c1.4-1.4,2.1-3.1,2.1-5.1V304.3C556,302.3,555.3,300.6,553.9,299.2z M578.6,201.1
			c-20-19.8-39.9-39.7-59.9-59.5c-1.9-1.9-4.1-3.6-7.3-6.4v315.5H586V207.2C583.5,205.1,580.8,203.3,578.6,201.1z M570.4,401.6
			c0,5.1-2.1,9.4-6.3,13s-9.3,5.4-15.3,5.4h-25.2v-3.3h4.5V297h-4.5v-3.2h25.2c6,0,11.1,1.8,15.3,5.4s6.3,7.9,6.3,13V401.6z
			 M548.8,297.1h-6.3v119.7h6.3c2,0,3.7-0.7,5.1-2.1c1.4-1.4,2.1-3.1,2.1-5.1V304.3c0-2-0.7-3.7-2.1-5.1S550.8,297.1,548.8,297.1z
			 M553.9,299.2c-1.4-1.4-3.1-2.1-5.1-2.1h-6.3v119.7h6.3c2,0,3.7-0.7,5.1-2.1c1.4-1.4,2.1-3.1,2.1-5.1V304.3
			C556,302.3,555.3,300.6,553.9,299.2z M553.9,299.2c-1.4-1.4-3.1-2.1-5.1-2.1h-6.3v119.7h6.3c2,0,3.7-0.7,5.1-2.1
			c1.4-1.4,2.1-3.1,2.1-5.1V304.3C556,302.3,555.3,300.6,553.9,299.2z M553.9,299.2c-1.4-1.4-3.1-2.1-5.1-2.1h-6.3v119.7h6.3
			c2,0,3.7-0.7,5.1-2.1c1.4-1.4,2.1-3.1,2.1-5.1V304.3C556,302.3,555.3,300.6,553.9,299.2z M553.9,299.2c-1.4-1.4-3.1-2.1-5.1-2.1
			h-6.3v119.7h6.3c2,0,3.7-0.7,5.1-2.1c1.4-1.4,2.1-3.1,2.1-5.1V304.3C556,302.3,555.3,300.6,553.9,299.2z M553.9,299.2
			c-1.4-1.4-3.1-2.1-5.1-2.1h-6.3v119.7h6.3c2,0,3.7-0.7,5.1-2.1c1.4-1.4,2.1-3.1,2.1-5.1V304.3C556,302.3,555.3,300.6,553.9,299.2z
			 M553.9,299.2c-1.4-1.4-3.1-2.1-5.1-2.1h-6.3v119.7h6.3c2,0,3.7-0.7,5.1-2.1c1.4-1.4,2.1-3.1,2.1-5.1V304.3
			C556,302.3,555.3,300.6,553.9,299.2z M553.9,299.2c-1.4-1.4-3.1-2.1-5.1-2.1h-6.3v119.7h6.3c2,0,3.7-0.7,5.1-2.1
			c1.4-1.4,2.1-3.1,2.1-5.1V304.3C556,302.3,555.3,300.6,553.9,299.2z M553.9,299.2c-1.4-1.4-3.1-2.1-5.1-2.1h-6.3v119.7h6.3
			c2,0,3.7-0.7,5.1-2.1c1.4-1.4,2.1-3.1,2.1-5.1V304.3C556,302.3,555.3,300.6,553.9,299.2z"/>
	</g>
	<g id="Folder_1">
		<path id="_x3C_Path_x3E__00000181783339113243820430000002901793779645949854_" class="st0" d="M314.8,242.3
			c-1.5,0-2.2,0.8-2.2,2.5v12.5h4.4v-12.5C317,243.1,316.3,242.3,314.8,242.3z M314.8,242.3c-1.5,0-2.2,0.8-2.2,2.5v12.5h4.4v-12.5
			C317,243.1,316.3,242.3,314.8,242.3z M314.8,242.3c-1.5,0-2.2,0.8-2.2,2.5v12.5h4.4v-12.5C317,243.1,316.3,242.3,314.8,242.3z
			 M314.8,242.3c-1.5,0-2.2,0.8-2.2,2.5v12.5h4.4v-12.5C317,243.1,316.3,242.3,314.8,242.3z M314.8,242.3c-1.5,0-2.2,0.8-2.2,2.5
			v12.5h4.4v-12.5C317,243.1,316.3,242.3,314.8,242.3z M314.8,242.3c-1.5,0-2.2,0.8-2.2,2.5v12.5h4.4v-12.5
			C317,243.1,316.3,242.3,314.8,242.3z M314.8,242.3c-1.5,0-2.2,0.8-2.2,2.5v12.5h4.4v-12.5C317,243.1,316.3,242.3,314.8,242.3z
			 M314.8,242.3c-1.5,0-2.2,0.8-2.2,2.5v12.5h4.4v-12.5C317,243.1,316.3,242.3,314.8,242.3z M314.8,242.3c-1.5,0-2.2,0.8-2.2,2.5
			v12.5h4.4v-12.5C317,243.1,316.3,242.3,314.8,242.3z M314.8,242.3c-1.5,0-2.2,0.8-2.2,2.5v12.5h4.4v-12.5
			C317,243.1,316.3,242.3,314.8,242.3z M289.8,176.9c-10.4,10.3-21.2,20.2-31.8,30.3v243.5h74.6V136.6
			C316.8,149.5,303.4,163.3,289.8,176.9z M288.5,273.4h1.6v-42.2h-1.6v-1.1h6.5v12.3c0.9-0.8,2.2-1.2,3.7-1.2c3.6,0,5.4,2,5.4,5.9
			v26.3h1.6v1.2h-6.5v-29.7c0-1.6-0.6-2.4-1.9-2.4c-0.8,0-1.6,0.4-2.3,1.1v29.8h1.7v1.2h-8.2L288.5,273.4L288.5,273.4z M272.7,231.2
			v12.2H268v-13.3h19v13.3h-4.6v-12.2h-2.3v42.2h1.5v1.1h-8.2v-1.1h1.6v-42.2H272.7z M317.4,332.7h-14.6v-28.5
			c0-4.9-2.1-7.3-6.3-7.3c-4.3,0-6.4,2.4-6.4,7.3v21.3c0,6,1.4,11.3,4.3,15.9l18.3,28.4c3.1,4.9,4.7,10.4,4.7,16.5v18.1
			c0,5.2-2,9.6-6,13.2s-9,5.4-14.9,5.4c-6,0-11-1.8-15-5.4s-6-8-6-13.2v-20.6h14.6v28.6c0,4.9,2.1,7.3,6.4,7.3
			c4.2,0,6.3-2.4,6.3-7.3v-22.1c0-6.1-1.5-11.4-4.4-16l-18.2-28.4c-3.1-4.9-4.7-10.4-4.7-16.4v-17.3c0-5.2,2-9.6,6-13.2
			s9-5.4,15-5.4c5.9,0,10.9,1.8,14.9,5.4s6,8,6,13.2L317.4,332.7L317.4,332.7z M322,258.5h-9.4v12.6c0,1.7,0.7,2.6,2.2,2.6
			s2.2-0.9,2.2-2.6v-6.7h5v4c0,1.8-0.7,3.3-2,4.6c-1.4,1.2-3.1,1.8-5.2,1.8s-3.8-0.6-5.1-1.8c-1.4-1.3-2.1-2.8-2.1-4.6v-20.7
			c0-1.9,0.7-3.4,2.1-4.6c1.3-1.3,3-1.9,5.1-1.9s3.8,0.6,5.2,1.9c1.3,1.2,2,2.7,2,4.6L322,258.5L322,258.5z M314.8,242.3
			c-1.5,0-2.2,0.8-2.2,2.5v12.5h4.4v-12.5C317,243.1,316.3,242.3,314.8,242.3z M314.8,242.3c-1.5,0-2.2,0.8-2.2,2.5v12.5h4.4v-12.5
			C317,243.1,316.3,242.3,314.8,242.3z M314.8,242.3c-1.5,0-2.2,0.8-2.2,2.5v12.5h4.4v-12.5C317,243.1,316.3,242.3,314.8,242.3z
			 M314.8,242.3c-1.5,0-2.2,0.8-2.2,2.5v12.5h4.4v-12.5C317,243.1,316.3,242.3,314.8,242.3z M314.8,242.3c-1.5,0-2.2,0.8-2.2,2.5
			v12.5h4.4v-12.5C317,243.1,316.3,242.3,314.8,242.3z M314.8,242.3c-1.5,0-2.2,0.8-2.2,2.5v12.5h4.4v-12.5
			C317,243.1,316.3,242.3,314.8,242.3z M314.8,242.3c-1.5,0-2.2,0.8-2.2,2.5v12.5h4.4v-12.5C317,243.1,316.3,242.3,314.8,242.3z
			 M314.8,242.3c-1.5,0-2.2,0.8-2.2,2.5v12.5h4.4v-12.5C317,243.1,316.3,242.3,314.8,242.3z M314.8,242.3c-1.5,0-2.2,0.8-2.2,2.5
			v12.5h4.4v-12.5C317,243.1,316.3,242.3,314.8,242.3z"/>
	</g>
</g>
</svg>
