<?xml version="1.0" encoding="utf-8"?>
<!-- Generator: Adobe Illustrator 26.0.1, SVG Export Plug-In . SVG Version: 6.00 Build 0)  -->
<svg version="1.1" id="Layer_1" xmlns="http://www.w3.org/2000/svg" xmlns:xlink="http://www.w3.org/1999/xlink" x="0px" y="0px"
	 viewBox="0 0 842 595" style="enable-background:new 0 0 842 595;" xml:space="preserve">
<style type="text/css">
	.st0{fill:#FFFFFF;}
	.st1{fill-rule:evenodd;clip-rule:evenodd;fill:#FFFFFF;}
</style>
<g id="Layer_1_00000023260711519600755580000015113041385680877242_">
	<g id="Venue">
		<path id="VENUE__x26__BOUTIQUE_HOTEL" class="st0" d="M734.7,494.3c-0.3,0-0.4,0.2-0.4,0.6c-0.1,0.8-0.5,1.8-1.1,2.5
			c-1,1.2-2.8,1.2-5,1.2c-3.2,0-4.3-0.3-5-0.9c-0.7-0.8-0.9-3.4-0.9-9.5v-7.4c0-6.5,0-7.6,0.1-8.9c0.1-1.5,0.4-2.2,1.6-2.4
			c0.5-0.1,1.1-0.1,1.4-0.1c0.2,0,0.3-0.1,0.3-0.3c0-0.2-0.2-0.3-0.6-0.3c-1.3,0-4.3,0.1-4.5,0.1s-2.8-0.1-4.7-0.1
			c-0.4,0-0.6,0.1-0.6,0.3c0,0.2,0.1,0.3,0.3,0.3c0.4,0,1.1,0,1.4,0.1c1.4,0.3,1.7,0.9,1.8,2.4c0.1,1.3,0.1,2.4,0.1,8.9v7.3
			c0,4,0,7.2-0.3,9c-0.1,1.2-0.3,2.1-1.2,2.3c-0.3,0-0.8,0.1-1.2,0.1c-0.2,0-0.3,0.1-0.3,0.3c0,0.2,0.2,0.3,0.6,0.3
			c0.7,0,1.6,0,2.4-0.1h1.7c1.2,0,2.5,0,4.2,0.1c1.8,0,3.9,0.1,6.9,0.1c2.2,0,2.3-0.1,2.6-1.1c0.3-1.2,0.6-3.7,0.6-4.1
			C734.9,494.5,734.9,494.3,734.7,494.3z M708.1,494.5c-0.2,0-0.3,0.2-0.4,0.6c-0.3,1.7-0.8,2.5-1.8,3c-1.1,0.5-2.9,0.5-4,0.5
			c-4.1,0-4.7-0.6-4.8-3.4c-0.1-0.9,0-5.7,0-7.1v-3.7c0-0.1,0.1-0.3,0.3-0.3c0.7,0,4.8,0.1,5.9,0.2c1.6,0.2,2,0.9,2.1,1.5
			c0.2,0.5,0.2,1,0.2,1.4c0,0.2,0.1,0.3,0.3,0.3c0.3,0,0.3-0.4,0.3-0.7c0-0.3,0.1-1.9,0.1-2.7c0.2-1.4,0.4-2.1,0.4-2.3
			c0-0.3-0.1-0.3-0.2-0.3c-0.2,0-0.4,0.2-0.6,0.5c-0.4,0.4-1,0.5-2,0.6c-0.9,0.1-6,0.1-6.6,0.1c-0.2,0-0.2-0.2-0.2-0.5v-11.4
			c0-0.3,0.1-0.4,0.2-0.4c0.5,0,5,0,5.7,0.1c2.2,0.3,2.6,0.8,2.9,1.4c0.2,0.5,0.3,1.2,0.3,1.5s0.1,0.6,0.3,0.6s0.3-0.3,0.3-0.5
			c0.1-0.5,0.2-2.3,0.2-2.7c0.1-1.2,0.3-1.7,0.3-2c0-0.2,0-0.4-0.1-0.4c-0.2,0-0.4,0.2-0.6,0.3c-0.3,0-1,0.1-1.8,0.2h-9.5l-1.7-0.1
			h-2.9c-0.5,0-0.7,0.1-0.7,0.3c0,0.2,0.2,0.3,0.3,0.3c0.4,0,1.1,0,1.4,0.1c1.4,0.3,1.7,0.9,1.8,2.3s0.1,2.5,0.1,9v7.3
			c0,4,0,7.2-0.2,9c-0.2,1.2-0.4,2.1-1.2,2.2c-0.4,0.1-0.9,0.2-1.3,0.2c-0.2,0-0.3,0.1-0.3,0.3c0,0.2,0.2,0.3,0.7,0.3
			c0.6,0,1.6-0.1,2.4-0.1s1.6,0,1.6,0c0.7,0,1.6,0,3.3,0.1c1.6,0,3.9,0.1,7,0.1c1.6,0,1.9,0,2.2-1.1c0.2-0.8,0.5-3.7,0.5-4
			S708.3,494.5,708.1,494.5z M684.7,468.6c-0.2,0-0.5,0.1-1.2,0.2c-0.6,0.1-1.6,0.2-2.9,0.2h-15.5c-0.5,0-2.1-0.1-3.3-0.2
			c-1.1-0.1-1.5-0.5-1.8-0.5c-0.2,0-0.4,0.5-0.4,0.8c-0.1,0.3-1,3.9-1,4.3c0,0.2,0.1,0.4,0.3,0.4c0.1,0,0.2-0.1,0.4-0.5
			c0.1-0.3,0.2-0.5,0.7-1.2c0.6-1,1.6-1.3,4.2-1.4l6.1-0.1v17.6c0,3.9,0,7.2-0.2,8.9c-0.1,1.2-0.4,2.2-1.2,2.3
			c-0.4,0.1-0.9,0.2-1.2,0.2s-0.4,0.1-0.4,0.2c0,0.3,0.3,0.4,0.7,0.4c1.2,0,3.9-0.2,4.1-0.2c0.2,0,2.8,0.2,5.1,0.2
			c0.4,0,0.6-0.2,0.6-0.4c0-0.1-0.1-0.2-0.3-0.2c-0.4,0-1.3-0.1-1.9-0.2c-1.2-0.1-1.5-1.1-1.6-2.3c-0.2-1.7-0.2-5-0.2-8.9v-17.6
			l5.2,0.1c4,0.1,5,1.1,5.1,2.3l0.1,0.5c0,0.5,0.1,0.7,0.3,0.7s0.3-0.2,0.3-0.6s0.1-3.3,0.1-4.5
			C684.9,468.8,684.9,468.6,684.7,468.6z M639.8,468.3c-11.4,0-16.3,9.5-16.3,16.2c0,7.4,4.7,16.2,16.1,16.2
			c9.9,0,16.5-7.6,16.5-16.9C656.1,474.2,649.1,468.3,639.8,468.3z M640.7,499.2c-7.5,0-13.3-6.2-13.3-15.9
			c0-9.1,5.2-13.6,12.1-13.6c6.6,0,12.6,5.3,12.6,15.3C652.1,497,644.4,499.2,640.7,499.2z M618.2,499.6c-0.4,0-1.3-0.1-1.9-0.2
			c-1.2-0.1-1.5-1-1.6-2.2c-0.2-1.8-0.2-5.1-0.2-9v-7.3c0-6.5,0-7.6,0.1-9s0.4-2.1,1.5-2.3c0.5-0.1,0.8-0.1,1.1-0.1
			c0.1,0,0.3-0.1,0.3-0.3s-0.2-0.3-0.7-0.3c-1.2,0-3.8,0.1-4,0.1s-2.8-0.1-4.7-0.1c-0.5,0-0.7,0.1-0.7,0.3s0.2,0.3,0.4,0.3
			c0.3,0,1,0,1.4,0.1c1.3,0.3,1.7,0.9,1.7,2.3c0.1,1.4,0.1,2.5,0.1,9v0.9c0,0.2-0.1,0.2-0.2,0.2h-17.6c-0.1,0-0.2,0-0.2-0.2v-0.9
			c0-6.5,0-7.6,0.1-9c0-1.4,0.4-2.1,1.5-2.3c0.5-0.1,0.7-0.1,1-0.1c0.2,0,0.4-0.1,0.4-0.3s-0.2-0.3-0.7-0.3c-1.2,0-3.9,0.1-4.1,0.1
			s-2.8-0.1-4.6-0.1c-0.5,0-0.7,0.1-0.7,0.3s0.2,0.3,0.3,0.3c0.4,0,1.1,0,1.4,0.1c1.4,0.3,1.7,0.9,1.8,2.3s0.1,2.5,0.1,9v7.3
			c0,3.9,0,7.2-0.2,9c-0.2,1.2-0.4,2.1-1.2,2.2c-0.4,0.1-0.9,0.2-1.3,0.2c-0.2,0-0.3,0.1-0.3,0.3s0.2,0.3,0.7,0.3
			c1.2,0,3.8-0.1,4-0.1s2.9,0.1,5.1,0.1c0.5,0,0.7-0.1,0.7-0.3s-0.1-0.3-0.3-0.3c-0.4,0-1.3-0.1-1.9-0.2c-1.2-0.1-1.5-1-1.6-2.2
			c-0.2-1.8-0.2-5.1-0.2-9v-4.4c0-0.2,0.1-0.2,0.2-0.2h17.6c0.1,0,0.2,0.1,0.2,0.2v4.4c0,3.9,0,7.2-0.2,9c-0.1,1.2-0.4,2.1-1.2,2.2
			c-0.4,0.1-0.8,0.2-1.2,0.2c-0.3,0-0.4,0.1-0.4,0.3s0.3,0.3,0.7,0.3c1.3,0,3.9-0.1,4.1-0.1s2.8,0.1,5.1,0.1c0.4,0,0.6-0.1,0.6-0.3
			S618.4,499.6,618.2,499.6z M565.3,494.6c-0.2,0-0.3,0.1-0.4,0.6c-0.3,1.7-0.8,2.5-1.9,3c-1,0.4-2.9,0.4-3.9,0.4
			c-4.1,0-4.7-0.5-4.8-3.4c-0.1-0.8,0-5.6,0-7v-3.7c0-0.1,0-0.3,0.2-0.3c0.8,0,4.9,0.1,6,0.2c1.6,0.2,2,0.9,2.1,1.5
			c0.2,0.5,0.2,0.9,0.2,1.3c0,0.3,0.1,0.4,0.3,0.4c0.3,0,0.3-0.4,0.3-0.8c0-0.3,0.1-1.8,0.1-2.6c0.2-1.4,0.4-2.1,0.4-2.3
			c0-0.3-0.1-0.4-0.2-0.4c-0.2,0-0.4,0.2-0.7,0.6s-0.9,0.5-1.9,0.6h-6.6c-0.2,0-0.2-0.1-0.2-0.4v-11.4c0-0.3,0-0.4,0.2-0.4
			c0.5,0,5,0,5.7,0.1c2.2,0.3,2.6,0.7,2.9,1.4c0.2,0.5,0.3,1.2,0.3,1.5s0.1,0.5,0.3,0.5s0.2-0.2,0.3-0.4c0.1-0.5,0.2-2.3,0.2-2.7
			c0.1-1.2,0.3-1.7,0.3-2c0-0.2,0-0.4-0.1-0.4c-0.2,0-0.4,0.2-0.6,0.2c-0.3,0.1-1,0.2-1.8,0.2c-0.9,0.1-9.2,0.1-9.5,0.1l-1.7-0.1h-3
			c-0.4,0-0.6,0-0.6,0.3c0,0.2,0.1,0.2,0.3,0.2c0.4,0,1.1,0.1,1.4,0.2c1.4,0.3,1.7,0.9,1.8,2.3s0.1,2.5,0.1,9v7.3
			c0,3.9,0,7.2-0.2,8.9c-0.2,1.2-0.4,2.2-1.2,2.3c-0.4,0.1-0.9,0.2-1.3,0.2c-0.2,0-0.3,0.1-0.3,0.2c0,0.3,0.2,0.4,0.7,0.4
			c0.6,0,1.5-0.1,2.4-0.1c0.8-0.1,1.5-0.1,1.6-0.1c0.6,0,1.6,0.1,3.3,0.2c1.6,0,3.8,0.1,6.9,0.1c1.7,0,2,0,2.3-1.1
			c0.2-0.9,0.5-3.7,0.5-4S565.5,494.6,565.3,494.6z M540.8,468.8c-1.2,0-3.2,0.1-3.5,0.1c-0.2,0-2.5-0.1-4.4-0.1
			c-0.4,0-0.6,0.1-0.6,0.3c0,0.2,0.1,0.3,0.3,0.3c0.4,0,1.1,0,1.4,0.1c1.4,0.3,1.7,1,1.8,2.4c0.1,1.3,0.1,2.5,0.1,8.9v5.2
			c0,4.3-0.5,7.8-2.4,10.1c-1.5,1.8-4,3-6.5,3c-2.4,0-4.3-0.4-6.3-2.3c-1.8-1.7-3.1-4.2-3.1-10.2v-5.8c0-6.4,0-7.6,0.1-8.9
			c0.1-1.5,0.4-2.2,1.5-2.4c0.5-0.1,0.8-0.1,1.1-0.1c0.1,0,0.3-0.1,0.3-0.3c0-0.2-0.2-0.3-0.7-0.3c-1.2,0-3.7,0.1-4.1,0.1
			c-0.3,0-2.9-0.1-4.7-0.1c-0.5,0-0.7,0.1-0.7,0.3c0,0.2,0.2,0.3,0.3,0.3c0.4,0,1.1,0,1.4,0.1c1.4,0.3,1.7,1,1.8,2.4
			c0.1,1.3,0.1,2.5,0.1,8.9v6.1c0,6,1.6,8.9,3.6,10.9c3,2.7,7.1,2.9,8.5,2.9c2.5,0,5.6-0.4,8.6-3.1c3.3-2.9,3.8-7.9,3.8-12.4v-4.4
			c0-6.4,0-7.6,0.1-8.9c0-1.5,0.4-2.1,1.5-2.4c0.5-0.1,0.7-0.1,1-0.1c0.2,0,0.4-0.1,0.4-0.3C541.5,468.9,541.3,468.8,540.8,468.8z
			 M533.5,505.1c-0.2,0-0.4,0.1-0.6,0.2c-2.9,1.1-6.1,1.6-8.2,1.6c-2,0-8.3-0.2-17.4-4.9l-8.5-4.4c2.7-1.8,7.3-6.6,7.3-13.9
			c0-9.6-6.9-15.5-16.2-15.5c-11.5,0-16.3,9.5-16.3,16.2c0,7.4,4.7,16.2,16.1,16.2c2.2,0,5.1-0.6,6.5-1.4l7,3.9
			c6.7,3.7,12.1,5.5,17.1,5.5c6.1,0,10.7-1.7,13.1-2.8c0.2-0.1,0.3-0.3,0.3-0.4C533.7,505.2,533.6,505.1,533.5,505.1z M490.8,499.1
			c-7.5,0-13.3-6.2-13.3-15.8c0-9.1,5.2-13.7,12.1-13.7c6.6,0,12.6,5.4,12.6,15.3C502.2,497,494.5,499.1,490.8,499.1z M468.3,499.5
			c-0.4,0-1.3-0.1-1.9-0.2c-1.3-0.1-1.5-1-1.6-2.2c-0.2-1.8-0.2-5.1-0.2-9v-7.3c0-6.5,0-7.6,0.1-9c0-1.4,0.4-2.1,1.5-2.3
			c0.5-0.1,0.7-0.1,1-0.1c0.2,0,0.4-0.1,0.4-0.3c0-0.2-0.3-0.3-0.7-0.3c-1.3,0-3.9,0.1-4.1,0.1s-2.8-0.1-4.2-0.1
			c-0.4,0-0.6,0.1-0.6,0.3c0,0.2,0.2,0.3,0.3,0.3c0.3,0,0.8,0,1.3,0.1c0.9,0.2,1.3,0.9,1.4,2.3s0.1,2.5,0.1,9v7.3c0,3.9,0,7.2-0.2,9
			c-0.2,1.2-0.4,2.1-1.2,2.2c-0.4,0.1-0.9,0.2-1.3,0.2c-0.2,0-0.3,0.1-0.3,0.2c0,0.3,0.2,0.4,0.7,0.4c1.2,0,3.8-0.1,4-0.1
			s2.8,0.1,5.1,0.1c0.5,0,0.7-0.1,0.7-0.4C468.6,499.6,468.5,499.5,468.3,499.5z M452.2,468.6c-0.2,0-0.6,0.1-1.2,0.2
			s-1.6,0.2-2.9,0.2h-15.5c-0.5,0-2.1-0.1-3.3-0.2c-1.1-0.1-1.5-0.5-1.8-0.5c-0.2,0-0.4,0.5-0.4,0.8c-0.1,0.3-1,3.9-1,4.3
			c0,0.2,0.1,0.3,0.2,0.3c0.2,0,0.3,0,0.5-0.4c0.1-0.3,0.2-0.5,0.7-1.3c0.6-0.9,1.6-1.2,4.2-1.3l6.1-0.1v17.6c0,3.9,0,7.2-0.2,8.9
			c-0.2,1.2-0.4,2.2-1.2,2.3c-0.4,0.1-0.9,0.2-1.2,0.2s-0.4,0.1-0.4,0.2c0,0.3,0.2,0.4,0.7,0.4c1.2,0,3.9-0.2,4.1-0.2
			s2.8,0.2,5.1,0.2c0.4,0,0.6-0.2,0.6-0.4c0-0.1-0.1-0.2-0.3-0.2c-0.4,0-1.3-0.1-1.9-0.2c-1.2-0.1-1.5-1.1-1.6-2.3
			c-0.2-1.7-0.2-5-0.2-8.9v-17.6l5.2,0.1c4,0.1,5,1.1,5.1,2.3v0.5c0.1,0.5,0.2,0.7,0.4,0.7c0.1,0,0.3-0.2,0.3-0.6s0.1-3.3,0.1-4.5
			C452.4,468.8,452.4,468.6,452.2,468.6z M422.5,468.8c-1.2,0-3.2,0.1-3.5,0.1c-0.2,0-2.5-0.1-4.4-0.1c-0.4,0-0.6,0.1-0.6,0.3
			c0,0.2,0.1,0.3,0.3,0.3c0.4,0,1.1,0,1.4,0.1c1.4,0.3,1.7,1,1.8,2.4c0.1,1.3,0.1,2.5,0.1,8.9v5.2c0,4.3-0.5,7.8-2.4,10.1
			c-1.5,1.8-4,3-6.5,3c-2.4,0-4.3-0.4-6.3-2.3c-1.8-1.7-3.1-4.2-3.1-10.2v-5.8c0-6.4,0-7.6,0.1-8.9c0.1-1.5,0.4-2.2,1.5-2.4
			c0.5-0.1,0.8-0.1,1.1-0.1c0.1,0,0.3-0.1,0.3-0.3c0-0.2-0.2-0.3-0.7-0.3c-1.2,0-3.7,0.1-4.1,0.1c-0.3,0-2.9-0.1-4.7-0.1
			c-0.5,0-0.7,0.1-0.7,0.3c0,0.2,0.2,0.3,0.3,0.3c0.4,0,1.1,0,1.4,0.1c1.4,0.3,1.7,1,1.8,2.4c0.1,1.3,0.1,2.5,0.1,8.9v6.1
			c0,6,1.6,8.9,3.6,10.8c3,2.8,7.1,3,8.5,3c2.5,0,5.6-0.4,8.6-3.1c3.3-2.9,3.8-7.9,3.8-12.4v-4.4c0-6.4,0-7.6,0.1-8.9
			c0-1.5,0.4-2.1,1.5-2.4c0.5-0.1,0.7-0.1,1-0.1c0.2,0,0.4-0.1,0.4-0.3C423.2,468.9,423,468.8,422.5,468.8z M371.8,468.2
			c-11.4,0-16.3,9.5-16.3,16.2c0,7.5,4.7,16.3,16.1,16.3c9.9,0,16.5-7.7,16.5-16.9C388.1,474.1,381.1,468.2,371.8,468.2z
			 M372.7,499.1c-7.5,0-13.3-6.2-13.3-15.8c0-9.1,5.2-13.7,12.1-13.7c6.6,0,12.6,5.4,12.6,15.3C384.1,497,376.4,499.1,372.7,499.1z
			 M342.4,482.5c2-2,3.9-4.1,3.9-7.5c0-2-1.5-6.2-8.3-6.2c-1.9,0-3.5,0.2-4.5,0.2c-0.2,0-2.8-0.2-4.7-0.2c-0.4,0-0.6,0.1-0.6,0.4
			c0,0.1,0.1,0.2,0.3,0.2c0.4,0,1.1,0.1,1.4,0.1c1.4,0.3,1.7,1,1.8,2.4c0.1,1.3,0.1,2.5,0.1,8.9v7.3c0,4,0,7.3-0.2,9
			c-0.2,1.2-0.4,2.1-1.2,2.3c-0.4,0.1-0.9,0.2-1.3,0.2c-0.2,0-0.3,0.1-0.3,0.2c0,0.3,0.2,0.3,0.7,0.3h2.4c0.8-0.1,1.5-0.1,1.6-0.1
			c0.2,0,1.3,0.1,2.5,0.1c1.2,0.1,2.6,0.2,3,0.2c7.1,0,10.6-4.6,10.6-9.1C349.6,486.4,345.5,483.5,342.4,482.5z M335.1,470.7
			c0-0.3,0.1-0.4,0.5-0.5c0.6-0.2,1.5-0.2,2-0.2c4,0,5.6,3.7,5.6,7.1c0,1.7-0.7,3.2-1.5,4.2c-0.9,1-1.5,1.1-3.8,1.1
			c-1.5,0-2.3-0.1-2.5-0.2s-0.3-0.1-0.3-0.4L335.1,470.7L335.1,470.7z M340.2,498.9c-0.8,0-2.5,0-3.7-0.6s-1.2-1.2-1.4-3.2v-11.3
			c0-0.2,0.1-0.3,0.2-0.3c0.7,0,2.7,0,3.3,0.1c1,0.1,2,0.2,3.4,1.2c3.2,2.2,4,5.8,4,8.3C346,497.7,342.4,498.9,340.2,498.9z
			 M314.1,499.6c-1.5,0-3.6-0.9-4.9-1.7c-1.2-0.6-3-1.7-5.7-4.1c1.8-2.2,4.1-6.4,4.1-9.7c0-0.4-0.1-0.8-0.8-0.9
			c-2.3-0.2-3.9-0.2-4.9-0.2c-0.4,0-0.7,0-0.7,0.2c0,0.3,0.3,0.3,0.5,0.3c0.6,0,1.5,0.2,2,0.7c0.7,0.6,0.8,1.4,0.8,2
			c0,2.6-0.9,5.3-2.1,6.9c-1.3-1.1-6.4-5.9-7.8-7.4c-4.3-4.7-6.6-7.4-6.6-10.6c0-3.9,2.8-5.4,5.3-5.4c1.8,0,3.2,0.8,4.1,1.8
			c1.1,1.1,1.3,2.4,1.3,3.5c0,0.6,0.1,0.8,0.3,0.8c0.1,0,0.3-0.1,0.4-0.7s0.3-3.5,0.3-4.8c0-0.5-0.1-0.7-0.6-1c-1.1-0.6-2.9-1-5-1
			c-5.5,0-8.9,4.3-8.9,7.6c0,1.8,0.5,3.5,2.1,5.7c-3.3,1.9-6.4,5.1-6.4,10c0,3.6,2.8,9.1,10.1,9.1c6.1,0,9.4-3.5,10.3-4.5
			c4.6,3.6,5.6,3.9,8.7,3.9h4c0.4,0,0.7-0.1,0.7-0.3C314.7,499.6,314.5,499.6,314.1,499.6z M292.4,498.5c-4.6,0-8.2-3.7-8.2-8.9
			c0-3.3,1.5-5.5,3.7-6.9c1.1,1.7,3.8,4.6,4.9,5.8c1,1.1,5.1,5.1,7.5,7C298.9,496.9,296.3,498.5,292.4,498.5z M262,494.5
			c-0.2,0-0.3,0.2-0.4,0.7c-0.3,1.7-0.8,2.5-1.8,2.9c-1.1,0.5-2.9,0.5-4,0.5c-4.1,0-4.7-0.5-4.8-3.4c-0.1-0.9,0-5.7,0-7.1v-3.6
			c0-0.2,0.1-0.3,0.3-0.3c0.7,0,4.8,0.1,5.9,0.2c1.6,0.2,2,0.9,2.2,1.4c0.1,0.6,0.1,1,0.1,1.4c0,0.2,0.1,0.4,0.3,0.4
			c0.3,0,0.3-0.5,0.3-0.8s0.1-1.8,0.2-2.7c0.1-1.3,0.3-2,0.3-2.3c0-0.2-0.1-0.3-0.2-0.3c-0.2,0-0.3,0.2-0.6,0.5
			c-0.4,0.4-1,0.5-2,0.6c-0.9,0.1-6,0.1-6.6,0.1c-0.2,0-0.2-0.1-0.2-0.4v-11.4c0-0.3,0.1-0.5,0.2-0.5c0.5,0,5,0.1,5.7,0.2
			c2.2,0.2,2.7,0.7,3,1.4c0.2,0.5,0.2,1.2,0.2,1.5s0.1,0.5,0.3,0.5c0.2,0,0.3-0.3,0.3-0.5c0.1-0.5,0.2-2.3,0.2-2.7
			c0.2-1.2,0.4-1.6,0.4-1.9c0-0.2-0.1-0.4-0.2-0.4c-0.2,0-0.4,0.2-0.6,0.2c-0.3,0.1-1,0.2-1.8,0.2h-11.1c-1-0.1-2.1-0.1-3-0.1
			c-0.5,0-0.7,0.1-0.7,0.4c0,0.1,0.2,0.2,0.3,0.2c0.4,0,1.1,0,1.4,0.1c1.4,0.3,1.7,1,1.8,2.4c0.1,1.3,0.1,2.5,0.1,8.9v7.3
			c0,4,0,7.3-0.2,9c-0.2,1.2-0.4,2.1-1.2,2.3c-0.4,0.1-0.9,0.1-1.2,0.1s-0.4,0.2-0.4,0.3c0,0.2,0.2,0.3,0.7,0.3
			c0.6,0,1.6-0.1,2.4-0.1c0.9,0,1.6,0,1.6,0c0.7,0,1.7,0,3.3,0.1s3.9,0.2,7,0.2c1.6,0,1.9,0,2.2-1.1c0.2-0.9,0.6-3.7,0.6-4
			S262.3,494.5,262,494.5z M237.5,468.9c-1.2,0-3.2,0.1-3.4,0.1c-0.3,0-2.6-0.1-4.4-0.1c-0.5,0-0.7,0.1-0.7,0.3s0.2,0.2,0.3,0.2
			c0.4,0,1.1,0.1,1.4,0.2c1.4,0.3,1.7,0.9,1.8,2.3s0.1,2.5,0.1,9v5.2c0,4.2-0.5,7.7-2.4,10.1c-1.5,1.8-4,3-6.5,3
			c-2.4,0-4.2-0.4-6.3-2.3c-1.7-1.7-3.1-4.3-3.1-10.2v-5.8c0-6.5,0-7.6,0.1-9s0.4-2.2,1.6-2.3c0.5-0.1,0.7-0.2,1-0.2
			c0.2,0,0.3,0,0.3-0.2s-0.2-0.3-0.6-0.3c-1.3,0-3.8,0.1-4.1,0.1c-0.4,0-2.9-0.1-4.8-0.1c-0.5,0-0.7,0.1-0.7,0.3s0.2,0.2,0.4,0.2
			c0.3,0,1,0.1,1.4,0.2c1.3,0.3,1.7,0.9,1.8,2.3v15c0,6.1,1.6,9,3.6,10.9c3,2.8,7.2,3,8.6,3c2.4,0,5.5-0.5,8.5-3.1
			c3.3-3,3.8-7.9,3.8-12.4v-4.4c0-6.5,0-7.6,0.1-9s0.4-2.1,1.5-2.3c0.5-0.1,0.8-0.2,1.1-0.2c0.1,0,0.3,0,0.3-0.2
			S238,468.9,237.5,468.9z M201.8,468.8c-1.7,0-3.1,0.2-3.5,0.2c-0.5,0-2.5-0.2-4.3-0.2c-0.5,0-0.9,0.1-0.9,0.3
			c0,0.2,0.1,0.3,0.4,0.3s1.3,0.1,2,0.2c1.3,0.4,1.6,1.3,1.6,4l0.5,21c-1.3-1.4-5.9-6.4-10-10.8c-6.3-6.9-12.5-13.5-13.1-14.2
			c-0.4-0.4-1.1-1.3-1.5-1.3c-0.3,0-0.4,0.4-0.4,2l-0.1,23.8c0,3.7-0.2,4.9-1.2,5.2c-0.6,0.2-1.4,0.3-1.7,0.3c-0.2,0-0.3,0-0.3,0.2
			c0,0.3,0.2,0.3,0.6,0.3c1.9,0,3.6-0.1,4-0.1s2,0.1,4.4,0.1c0.5,0,0.7,0,0.7-0.3c0-0.2-0.1-0.2-0.3-0.2c-0.4,0-1.3-0.1-2.1-0.3
			c-1.1-0.3-1.5-1.4-1.6-4.8l-0.5-19.8c1.3,1.5,6,6.7,10.8,11.9c4.4,4.7,10.3,10.8,10.8,11.2c2.2,2.2,2.7,2.6,3,2.6s0.4-0.2,0.4-2.9
			l0.1-24.3c0-2.5,0.1-3.4,1.5-3.7c0.5-0.1,0.8-0.1,1-0.1c0.3,0,0.4-0.1,0.4-0.3C202.5,468.9,202.3,468.8,201.8,468.8z M163.1,494.5
			c-0.2,0-0.3,0.2-0.3,0.7c-0.3,1.7-0.8,2.5-1.9,2.9c-1.1,0.5-2.9,0.5-4,0.5c-4,0-4.7-0.5-4.8-3.4v-10.7c0-0.2,0.1-0.3,0.3-0.3
			c0.7,0,4.8,0.1,5.9,0.2c1.6,0.2,2,0.9,2.2,1.4c0.1,0.6,0.1,1,0.1,1.4c0,0.2,0.1,0.4,0.3,0.4c0.3,0,0.3-0.5,0.3-0.8
			s0.1-1.8,0.2-2.7c0.1-1.3,0.3-2,0.3-2.3c0-0.2-0.1-0.3-0.2-0.3c-0.2,0-0.3,0.2-0.6,0.5c-0.4,0.4-1,0.5-2,0.6
			c-0.9,0.1-6,0.1-6.5,0.1c-0.2,0-0.3-0.1-0.3-0.4v-11.5c0-0.2,0.1-0.4,0.3-0.4c0.4,0,4.9,0.1,5.6,0.2c2.3,0.2,2.7,0.7,3,1.4
			c0.2,0.5,0.2,1.2,0.2,1.5s0.1,0.5,0.4,0.5c0.1,0,0.2-0.3,0.2-0.5c0.1-0.5,0.2-2.3,0.2-2.7c0.2-1.2,0.4-1.6,0.4-1.9
			c0-0.2-0.1-0.4-0.2-0.4c-0.2,0-0.4,0.2-0.6,0.2c-0.3,0.1-1,0.2-1.7,0.2h-11.2c-0.9-0.1-2.1-0.1-3-0.1c-0.5,0-0.7,0.1-0.7,0.4
			c0,0.1,0.2,0.2,0.4,0.2c0.3,0,1,0,1.4,0.1c1.3,0.3,1.7,1,1.7,2.4c0.1,1.3,0.1,2.5,0.1,8.9v7.3c0,4,0,7.3-0.2,9
			c-0.1,1.2-0.3,2.1-1.2,2.3c-0.3,0.1-0.8,0.1-1.2,0.1c-0.3,0-0.3,0.2-0.3,0.3c0,0.2,0.2,0.3,0.6,0.3c0.6,0,1.6-0.1,2.4-0.1h1.7
			c0.6,0,1.6,0,3.2,0.1c1.6,0.1,3.9,0.1,7,0.1c1.6,0,1.9,0,2.2-1c0.2-0.9,0.6-3.7,0.6-4S163.4,494.5,163.1,494.5z M141.7,468.8
			c-1.2,0-3,0.1-3.2,0.1c-0.5,0-2.4-0.1-4.1-0.1c-0.6,0-0.9,0.1-0.9,0.4c0,0.2,0.2,0.2,0.5,0.2c0.4,0,1,0,1.5,0.2s0.6,0.6,0.6,0.9
			c0,0.4-0.2,1-0.4,1.6c-0.9,3-6.5,17.4-8.9,23l-7.9-21.2c-0.6-1.6-1.1-2.9-1.1-3.5c0-0.3,0.1-0.6,0.5-0.8c0.4-0.2,1.1-0.2,1.6-0.2
			c0.3,0,0.4-0.1,0.4-0.3c0-0.2-0.4-0.3-1.1-0.3c-1.6,0-3.5,0.1-3.9,0.1c-0.5,0-2.8-0.1-4.8-0.1c-0.7,0-1.1,0.1-1.1,0.3
			c0,0.2,0.1,0.3,0.3,0.3c0.3,0,1,0,1.6,0.2c1.5,0.4,2.1,0.8,3,3.2l10.1,25.3c0.8,2,1,2.6,1.5,2.6c0.4,0,0.6-0.7,1.8-3.1
			c0.9-2.1,2.8-6.5,5.3-12.6c2.1-5.1,4.2-10.1,4.7-11.2c1.1-2.8,1.7-3.5,2.2-3.9c0.8-0.5,1.7-0.5,2-0.5s0.5-0.1,0.5-0.3
			C142.4,468.9,142.2,468.8,141.7,468.8z"/>
	</g>
	<g id="Shed">
		<g id="_x3C_Group_x3E_">
			<path id="_x3C_Path_x3E_" class="st1" d="M416.7,439V58c-2.3,1.2-3.3,1.4-4,2.1c-22.5,22.3-45.1,44.6-67.4,67.1
				c-2,2-3,5.8-3.1,8.7c-0.3,13.7-0.2,27.4-0.2,41.1c0,60.2,0,120.4,0.1,180.5c0,31.1,0.2,62.1,0.4,93.2h74.6
				C416.9,446.8,416.7,442.9,416.7,439z M406.1,298.2h-4.6v119.3h4.6v3.2h-23.4v-3.2h4.5v-61.6h-14.4v61.6h4.5v3.2H354v-3.2h4.5
				V298.2H354V295h23.3v3.2h-4.5v54.5h14.4v-54.5h-4.5V295h23.4L406.1,298.2L406.1,298.2z"/>
		</g>
		<g id="_x3C_Group_x3E__00000173860667853345892310000008585872570595962555_">
			<path id="_x3C_Path_x3E__00000121249308105505452030000015578986316182501258_" class="st1" d="M501.7,136.6
				c-0.1-3.8-2.1-8.3-4.7-10.9c-21.1-21.5-42.5-42.7-63.9-63.9c-1.2-1.2-2.8-2.1-5.6-4.2v383.3c0,3.3-0.4,6.5-0.6,9.8h74.6
				c0.2-3.9,0.4-7.8,0.4-11.8c0.1-87.1,0.1-174.1,0.1-261.2C502,164,502.3,150.3,501.7,136.6z M487,332.1h-14.5v-34.8h-11.8v55h17.2
				v3.3h-17.2v62.1h11.8v-34.8H487V421h-45.3v-3.3h4.5V297.3h-4.5V294H487V332.1z"/>
		</g>
		<g id="_x3C_Group_x3E__00000127014962267776363990000001131908920110809746_">
			<path id="_x3C_Path_x3E__00000142882176710763806920000010116650495307322246_" class="st1" d="M553.9,299.2
				c-1.4-1.4-3.1-2.1-5.1-2.1h-6.3v119.7h6.3c2,0,3.7-0.7,5.1-2.1c1.4-1.4,2.1-3.1,2.1-5.1V304.3C556,302.3,555.3,300.6,553.9,299.2
				z M553.9,299.2c-1.4-1.4-3.1-2.1-5.1-2.1h-6.3v119.7h6.3c2,0,3.7-0.7,5.1-2.1c1.4-1.4,2.1-3.1,2.1-5.1V304.3
				C556,302.3,555.3,300.6,553.9,299.2z M553.9,299.2c-1.4-1.4-3.1-2.1-5.1-2.1h-6.3v119.7h6.3c2,0,3.7-0.7,5.1-2.1
				c1.4-1.4,2.1-3.1,2.1-5.1V304.3C556,302.3,555.3,300.6,553.9,299.2z M553.9,299.2c-1.4-1.4-3.1-2.1-5.1-2.1h-6.3v119.7h6.3
				c2,0,3.7-0.7,5.1-2.1c1.4-1.4,2.1-3.1,2.1-5.1V304.3C556,302.3,555.3,300.6,553.9,299.2z M553.9,299.2c-1.4-1.4-3.1-2.1-5.1-2.1
				h-6.3v119.7h6.3c2,0,3.7-0.7,5.1-2.1c1.4-1.4,2.1-3.1,2.1-5.1V304.3C556,302.3,555.3,300.6,553.9,299.2z M553.9,299.2
				c-1.4-1.4-3.1-2.1-5.1-2.1h-6.3v119.7h6.3c2,0,3.7-0.7,5.1-2.1c1.4-1.4,2.1-3.1,2.1-5.1V304.3C556,302.3,555.3,300.6,553.9,299.2
				z M553.9,299.2c-1.4-1.4-3.1-2.1-5.1-2.1h-6.3v119.7h6.3c2,0,3.7-0.7,5.1-2.1c1.4-1.4,2.1-3.1,2.1-5.1V304.3
				C556,302.3,555.3,300.6,553.9,299.2z M553.9,299.2c-1.4-1.4-3.1-2.1-5.1-2.1h-6.3v119.7h6.3c2,0,3.7-0.7,5.1-2.1
				c1.4-1.4,2.1-3.1,2.1-5.1V304.3C556,302.3,555.3,300.6,553.9,299.2z M553.9,299.2c-1.4-1.4-3.1-2.1-5.1-2.1h-6.3v119.7h6.3
				c2,0,3.7-0.7,5.1-2.1c1.4-1.4,2.1-3.1,2.1-5.1V304.3C556,302.3,555.3,300.6,553.9,299.2z M553.9,299.2c-1.4-1.4-3.1-2.1-5.1-2.1
				h-6.3v119.7h6.3c2,0,3.7-0.7,5.1-2.1c1.4-1.4,2.1-3.1,2.1-5.1V304.3C556,302.3,555.3,300.6,553.9,299.2z M578.6,201.1
				c-20-19.8-39.9-39.7-59.9-59.5c-1.9-1.9-4.1-3.6-7.3-6.4v315.5H586V207.2C583.5,205.1,580.8,203.3,578.6,201.1z M570.4,401.6
				c0,5.1-2.1,9.4-6.3,13s-9.3,5.4-15.3,5.4h-25.2v-3.3h4.5V297h-4.5v-3.2h25.2c6,0,11.1,1.8,15.3,5.4s6.3,7.9,6.3,13V401.6z
				 M548.8,297.1h-6.3v119.7h6.3c2,0,3.7-0.7,5.1-2.1c1.4-1.4,2.1-3.1,2.1-5.1V304.3c0-2-0.7-3.7-2.1-5.1S550.8,297.1,548.8,297.1z
				 M553.9,299.2c-1.4-1.4-3.1-2.1-5.1-2.1h-6.3v119.7h6.3c2,0,3.7-0.7,5.1-2.1c1.4-1.4,2.1-3.1,2.1-5.1V304.3
				C556,302.3,555.3,300.6,553.9,299.2z M553.9,299.2c-1.4-1.4-3.1-2.1-5.1-2.1h-6.3v119.7h6.3c2,0,3.7-0.7,5.1-2.1
				c1.4-1.4,2.1-3.1,2.1-5.1V304.3C556,302.3,555.3,300.6,553.9,299.2z M553.9,299.2c-1.4-1.4-3.1-2.1-5.1-2.1h-6.3v119.7h6.3
				c2,0,3.7-0.7,5.1-2.1c1.4-1.4,2.1-3.1,2.1-5.1V304.3C556,302.3,555.3,300.6,553.9,299.2z M553.9,299.2c-1.4-1.4-3.1-2.1-5.1-2.1
				h-6.3v119.7h6.3c2,0,3.7-0.7,5.1-2.1c1.4-1.4,2.1-3.1,2.1-5.1V304.3C556,302.3,555.3,300.6,553.9,299.2z M553.9,299.2
				c-1.4-1.4-3.1-2.1-5.1-2.1h-6.3v119.7h6.3c2,0,3.7-0.7,5.1-2.1c1.4-1.4,2.1-3.1,2.1-5.1V304.3C556,302.3,555.3,300.6,553.9,299.2
				z M553.9,299.2c-1.4-1.4-3.1-2.1-5.1-2.1h-6.3v119.7h6.3c2,0,3.7-0.7,5.1-2.1c1.4-1.4,2.1-3.1,2.1-5.1V304.3
				C556,302.3,555.3,300.6,553.9,299.2z M553.9,299.2c-1.4-1.4-3.1-2.1-5.1-2.1h-6.3v119.7h6.3c2,0,3.7-0.7,5.1-2.1
				c1.4-1.4,2.1-3.1,2.1-5.1V304.3C556,302.3,555.3,300.6,553.9,299.2z M553.9,299.2c-1.4-1.4-3.1-2.1-5.1-2.1h-6.3v119.7h6.3
				c2,0,3.7-0.7,5.1-2.1c1.4-1.4,2.1-3.1,2.1-5.1V304.3C556,302.3,555.3,300.6,553.9,299.2z"/>
		</g>
		<g id="Folder_1">
			<path id="_x3C_Path_x3E__00000181783339113243820430000002901793779645949854_" class="st1" d="M314.8,242.3
				c-1.5,0-2.2,0.8-2.2,2.5v12.5h4.4v-12.5C317,243.1,316.3,242.3,314.8,242.3z M314.8,242.3c-1.5,0-2.2,0.8-2.2,2.5v12.5h4.4v-12.5
				C317,243.1,316.3,242.3,314.8,242.3z M314.8,242.3c-1.5,0-2.2,0.8-2.2,2.5v12.5h4.4v-12.5C317,243.1,316.3,242.3,314.8,242.3z
				 M314.8,242.3c-1.5,0-2.2,0.8-2.2,2.5v12.5h4.4v-12.5C317,243.1,316.3,242.3,314.8,242.3z M314.8,242.3c-1.5,0-2.2,0.8-2.2,2.5
				v12.5h4.4v-12.5C317,243.1,316.3,242.3,314.8,242.3z M314.8,242.3c-1.5,0-2.2,0.8-2.2,2.5v12.5h4.4v-12.5
				C317,243.1,316.3,242.3,314.8,242.3z M314.8,242.3c-1.5,0-2.2,0.8-2.2,2.5v12.5h4.4v-12.5C317,243.1,316.3,242.3,314.8,242.3z
				 M314.8,242.3c-1.5,0-2.2,0.8-2.2,2.5v12.5h4.4v-12.5C317,243.1,316.3,242.3,314.8,242.3z M314.8,242.3c-1.5,0-2.2,0.8-2.2,2.5
				v12.5h4.4v-12.5C317,243.1,316.3,242.3,314.8,242.3z M314.8,242.3c-1.5,0-2.2,0.8-2.2,2.5v12.5h4.4v-12.5
				C317,243.1,316.3,242.3,314.8,242.3z M289.8,176.9c-10.4,10.3-21.2,20.2-31.8,30.3v243.5h74.6V136.6
				C316.8,149.5,303.4,163.3,289.8,176.9z M288.5,273.4h1.6v-42.2h-1.6v-1.1h6.5v12.3c0.9-0.8,2.2-1.2,3.7-1.2c3.6,0,5.4,2,5.4,5.9
				v26.3h1.6v1.2h-6.5v-29.7c0-1.6-0.6-2.4-1.9-2.4c-0.8,0-1.6,0.4-2.3,1.1v29.8h1.7v1.2h-8.2L288.5,273.4L288.5,273.4z
				 M272.7,231.2v12.2H268v-13.3h19v13.3h-4.6v-12.2h-2.3v42.2h1.5v1.1h-8.2v-1.1h1.6v-42.2H272.7z M317.4,332.7h-14.6v-28.5
				c0-4.9-2.1-7.3-6.3-7.3c-4.3,0-6.4,2.4-6.4,7.3v21.3c0,6,1.4,11.3,4.3,15.9l18.3,28.4c3.1,4.9,4.7,10.4,4.7,16.5v18.1
				c0,5.2-2,9.6-6,13.2s-9,5.4-14.9,5.4c-6,0-11-1.8-15-5.4s-6-8-6-13.2v-20.6h14.6v28.6c0,4.9,2.1,7.3,6.4,7.3
				c4.2,0,6.3-2.4,6.3-7.3v-22.1c0-6.1-1.5-11.4-4.4-16l-18.2-28.4c-3.1-4.9-4.7-10.4-4.7-16.4v-17.3c0-5.2,2-9.6,6-13.2
				s9-5.4,15-5.4c5.9,0,10.9,1.8,14.9,5.4s6,8,6,13.2L317.4,332.7L317.4,332.7z M322,258.5h-9.4v12.6c0,1.7,0.7,2.6,2.2,2.6
				s2.2-0.9,2.2-2.6v-6.7h5v4c0,1.8-0.7,3.3-2,4.6c-1.4,1.2-3.1,1.8-5.2,1.8s-3.8-0.6-5.1-1.8c-1.4-1.3-2.1-2.8-2.1-4.6v-20.7
				c0-1.9,0.7-3.4,2.1-4.6c1.3-1.3,3-1.9,5.1-1.9s3.8,0.6,5.2,1.9c1.3,1.2,2,2.7,2,4.6L322,258.5L322,258.5z M314.8,242.3
				c-1.5,0-2.2,0.8-2.2,2.5v12.5h4.4v-12.5C317,243.1,316.3,242.3,314.8,242.3z M314.8,242.3c-1.5,0-2.2,0.8-2.2,2.5v12.5h4.4v-12.5
				C317,243.1,316.3,242.3,314.8,242.3z M314.8,242.3c-1.5,0-2.2,0.8-2.2,2.5v12.5h4.4v-12.5C317,243.1,316.3,242.3,314.8,242.3z
				 M314.8,242.3c-1.5,0-2.2,0.8-2.2,2.5v12.5h4.4v-12.5C317,243.1,316.3,242.3,314.8,242.3z M314.8,242.3c-1.5,0-2.2,0.8-2.2,2.5
				v12.5h4.4v-12.5C317,243.1,316.3,242.3,314.8,242.3z M314.8,242.3c-1.5,0-2.2,0.8-2.2,2.5v12.5h4.4v-12.5
				C317,243.1,316.3,242.3,314.8,242.3z M314.8,242.3c-1.5,0-2.2,0.8-2.2,2.5v12.5h4.4v-12.5C317,243.1,316.3,242.3,314.8,242.3z
				 M314.8,242.3c-1.5,0-2.2,0.8-2.2,2.5v12.5h4.4v-12.5C317,243.1,316.3,242.3,314.8,242.3z M314.8,242.3c-1.5,0-2.2,0.8-2.2,2.5
				v12.5h4.4v-12.5C317,243.1,316.3,242.3,314.8,242.3z"/>
		</g>
	</g>
</g>
</svg>
