<svg xmlns="http://www.w3.org/2000/svg" viewBox="0 0 328 393.1"><defs><style>.cls-1{fill:#fff;fill-rule:evenodd;}</style></defs><g id="Layer_2" data-name="Layer 2"><g id="Layer_1-2" data-name="Layer 1"><g id="Shed"><g id="_Group_" data-name="&lt;Group&gt;"><path id="_Path_" data-name="&lt;Path&gt;" class="cls-1" d="M158.7,381.4V.4c-2.3,1.2-3.3,1.4-4,2.1-22.5,22.3-45.1,44.6-67.4,67.1-2,2-3,5.8-3.1,8.7-.3,13.7-.2,27.4-.2,41.1q0,90.3.1,180.5c0,31.1.2,62.1.4,93.2h74.6C158.9,389.2,158.7,385.3,158.7,381.4ZM148.1,240.6h-4.6V359.9h4.6v3.2H124.7v-3.2h4.5V298.3H114.8v61.6h4.5v3.2H96v-3.2h4.5V240.6H96v-3.2h23.3v3.2h-4.5v54.5h14.4V240.6h-4.5v-3.2h23.4v3.2Z"/></g><g id="_Group_2" data-name="&lt;Group&gt;"><path id="_Path_2" data-name="&lt;Path&gt;" class="cls-1" d="M243.7,79A17.47,17.47,0,0,0,239,68.1c-21.1-21.5-42.5-42.7-63.9-63.9-1.2-1.2-2.8-2.1-5.6-4.2V383.3c0,3.3-.4,6.5-.6,9.8h74.6c.2-3.9.4-7.8.4-11.8q.15-130.65.1-261.2C244,106.4,244.3,92.7,243.7,79ZM229,274.5H214.5V239.7H202.7v55h17.2V298H202.7v62.1h11.8V325.3H229v38.1H183.7v-3.3h4.5V239.7h-4.5v-3.3H229Z"/></g><g id="_Group_3" data-name="&lt;Group&gt;"><path id="_Path_3" data-name="&lt;Path&gt;" class="cls-1" d="M295.9,241.6a6.94,6.94,0,0,0-5.1-2.1h-6.3V359.2h6.3A7.17,7.17,0,0,0,298,352V246.7A6.94,6.94,0,0,0,295.9,241.6Zm0,0a6.94,6.94,0,0,0-5.1-2.1h-6.3V359.2h6.3A7.17,7.17,0,0,0,298,352V246.7A6.94,6.94,0,0,0,295.9,241.6Zm0,0a6.94,6.94,0,0,0-5.1-2.1h-6.3V359.2h6.3A7.17,7.17,0,0,0,298,352V246.7A6.94,6.94,0,0,0,295.9,241.6Zm0,0a6.94,6.94,0,0,0-5.1-2.1h-6.3V359.2h6.3A7.17,7.17,0,0,0,298,352V246.7A6.94,6.94,0,0,0,295.9,241.6Zm0,0a6.94,6.94,0,0,0-5.1-2.1h-6.3V359.2h6.3A7.17,7.17,0,0,0,298,352V246.7A6.94,6.94,0,0,0,295.9,241.6Zm0,0a6.94,6.94,0,0,0-5.1-2.1h-6.3V359.2h6.3A7.17,7.17,0,0,0,298,352V246.7A6.94,6.94,0,0,0,295.9,241.6Zm0,0a6.94,6.94,0,0,0-5.1-2.1h-6.3V359.2h6.3A7.17,7.17,0,0,0,298,352V246.7A6.94,6.94,0,0,0,295.9,241.6Zm0,0a6.94,6.94,0,0,0-5.1-2.1h-6.3V359.2h6.3A7.17,7.17,0,0,0,298,352V246.7A6.94,6.94,0,0,0,295.9,241.6Zm0,0a6.94,6.94,0,0,0-5.1-2.1h-6.3V359.2h6.3A7.17,7.17,0,0,0,298,352V246.7A6.94,6.94,0,0,0,295.9,241.6Zm0,0a6.94,6.94,0,0,0-5.1-2.1h-6.3V359.2h6.3A7.17,7.17,0,0,0,298,352V246.7A6.94,6.94,0,0,0,295.9,241.6Zm24.7-98.1c-20-19.8-39.9-39.7-59.9-59.5-1.9-1.9-4.1-3.6-7.3-6.4V393.1H328V149.6C325.5,147.5,322.8,145.7,320.6,143.5ZM312.4,344c0,5.1-2.1,9.4-6.3,13a22.71,22.71,0,0,1-15.3,5.4H265.6v-3.3h4.5V239.4h-4.5v-3.2h25.2a22.71,22.71,0,0,1,15.3,5.4c4.2,3.6,6.3,7.9,6.3,13ZM290.8,239.5h-6.3V359.2h6.3A7.17,7.17,0,0,0,298,352V246.7a7.17,7.17,0,0,0-7.2-7.2Zm5.1,2.1a6.94,6.94,0,0,0-5.1-2.1h-6.3V359.2h6.3A7.17,7.17,0,0,0,298,352V246.7A6.94,6.94,0,0,0,295.9,241.6Zm0,0a6.94,6.94,0,0,0-5.1-2.1h-6.3V359.2h6.3A7.17,7.17,0,0,0,298,352V246.7A6.94,6.94,0,0,0,295.9,241.6Zm0,0a6.94,6.94,0,0,0-5.1-2.1h-6.3V359.2h6.3A7.17,7.17,0,0,0,298,352V246.7A6.94,6.94,0,0,0,295.9,241.6Zm0,0a6.94,6.94,0,0,0-5.1-2.1h-6.3V359.2h6.3A7.17,7.17,0,0,0,298,352V246.7A6.94,6.94,0,0,0,295.9,241.6Zm0,0a6.94,6.94,0,0,0-5.1-2.1h-6.3V359.2h6.3A7.17,7.17,0,0,0,298,352V246.7A6.94,6.94,0,0,0,295.9,241.6Zm0,0a6.94,6.94,0,0,0-5.1-2.1h-6.3V359.2h6.3A7.17,7.17,0,0,0,298,352V246.7A6.94,6.94,0,0,0,295.9,241.6Zm0,0a6.94,6.94,0,0,0-5.1-2.1h-6.3V359.2h6.3A7.17,7.17,0,0,0,298,352V246.7A6.94,6.94,0,0,0,295.9,241.6Zm0,0a6.94,6.94,0,0,0-5.1-2.1h-6.3V359.2h6.3A7.17,7.17,0,0,0,298,352V246.7A6.94,6.94,0,0,0,295.9,241.6Z"/></g><g id="Folder_1" data-name="Folder 1"><path id="_Path_4" data-name="&lt;Path&gt;" class="cls-1" d="M56.8,184.7c-1.5,0-2.2.8-2.2,2.5v12.5H59V187.2C59,185.5,58.3,184.7,56.8,184.7Zm0,0c-1.5,0-2.2.8-2.2,2.5v12.5H59V187.2C59,185.5,58.3,184.7,56.8,184.7Zm0,0c-1.5,0-2.2.8-2.2,2.5v12.5H59V187.2C59,185.5,58.3,184.7,56.8,184.7Zm0,0c-1.5,0-2.2.8-2.2,2.5v12.5H59V187.2C59,185.5,58.3,184.7,56.8,184.7Zm0,0c-1.5,0-2.2.8-2.2,2.5v12.5H59V187.2C59,185.5,58.3,184.7,56.8,184.7Zm0,0c-1.5,0-2.2.8-2.2,2.5v12.5H59V187.2C59,185.5,58.3,184.7,56.8,184.7Zm0,0c-1.5,0-2.2.8-2.2,2.5v12.5H59V187.2C59,185.5,58.3,184.7,56.8,184.7Zm0,0c-1.5,0-2.2.8-2.2,2.5v12.5H59V187.2C59,185.5,58.3,184.7,56.8,184.7Zm0,0c-1.5,0-2.2.8-2.2,2.5v12.5H59V187.2C59,185.5,58.3,184.7,56.8,184.7Zm0,0c-1.5,0-2.2.8-2.2,2.5v12.5H59V187.2C59,185.5,58.3,184.7,56.8,184.7Zm-25-65.4C21.4,129.6,10.6,139.5,0,149.6V393.1H74.6V79C58.8,91.9,45.4,105.7,31.8,119.3Zm-1.3,96.5h1.6V173.6H30.5v-1.1H37v12.3a5.49,5.49,0,0,1,3.7-1.2c3.6,0,5.4,2,5.4,5.9v26.3h1.6V217H41.2V187.3c0-1.6-.6-2.4-1.9-2.4A3.33,3.33,0,0,0,37,186v29.8h1.7V217H30.5v-1.2ZM14.7,173.6v12.2H10V172.5H29v13.3H24.4V173.6H22.1v42.2h1.5v1.1H15.4v-1.1H17V173.6ZM59.4,275.1H44.8V246.6c0-4.9-2.1-7.3-6.3-7.3s-6.4,2.4-6.4,7.3v21.3a29.15,29.15,0,0,0,4.3,15.9l18.3,28.4a30.26,30.26,0,0,1,4.7,16.5v18.1a17.09,17.09,0,0,1-6,13.2,21.51,21.51,0,0,1-14.9,5.4,21.59,21.59,0,0,1-15-5.4,17.09,17.09,0,0,1-6-13.2V326.2H32.1v28.6c0,4.9,2.1,7.3,6.4,7.3s6.3-2.4,6.3-7.3V332.7a29.31,29.31,0,0,0-4.4-16L22.2,288.3a30.16,30.16,0,0,1-4.7-16.4V254.6a17.09,17.09,0,0,1,6-13.2,21.59,21.59,0,0,1,15-5.4,21.51,21.51,0,0,1,14.9,5.4,17.09,17.09,0,0,1,6,13.2v20.5ZM64,200.9H54.6v12.6c0,1.7.7,2.6,2.2,2.6s2.2-.9,2.2-2.6v-6.7h5v4a6.29,6.29,0,0,1-2,4.6,7.65,7.65,0,0,1-5.2,1.8,7.22,7.22,0,0,1-5.1-1.8,6,6,0,0,1-2.1-4.6V190.1a5.74,5.74,0,0,1,2.1-4.6,6.86,6.86,0,0,1,5.1-1.9,7.26,7.26,0,0,1,5.2,1.9,6,6,0,0,1,2,4.6v10.8Zm-7.2-16.2c-1.5,0-2.2.8-2.2,2.5v12.5H59V187.2C59,185.5,58.3,184.7,56.8,184.7Zm0,0c-1.5,0-2.2.8-2.2,2.5v12.5H59V187.2C59,185.5,58.3,184.7,56.8,184.7Zm0,0c-1.5,0-2.2.8-2.2,2.5v12.5H59V187.2C59,185.5,58.3,184.7,56.8,184.7Zm0,0c-1.5,0-2.2.8-2.2,2.5v12.5H59V187.2C59,185.5,58.3,184.7,56.8,184.7Zm0,0c-1.5,0-2.2.8-2.2,2.5v12.5H59V187.2C59,185.5,58.3,184.7,56.8,184.7Zm0,0c-1.5,0-2.2.8-2.2,2.5v12.5H59V187.2C59,185.5,58.3,184.7,56.8,184.7Zm0,0c-1.5,0-2.2.8-2.2,2.5v12.5H59V187.2C59,185.5,58.3,184.7,56.8,184.7Zm0,0c-1.5,0-2.2.8-2.2,2.5v12.5H59V187.2C59,185.5,58.3,184.7,56.8,184.7Zm0,0c-1.5,0-2.2.8-2.2,2.5v12.5H59V187.2C59,185.5,58.3,184.7,56.8,184.7Z"/></g></g></g></g></svg>